<svg width="36" height="36" fill="none" xmlns="http://www.w3.org/2000/svg"><g clip-path="url(#clip0_1_37)" fill="#45766A"><path d="M12.034 24.928h3.644v.302h-3.644v-.302zm16.006 0H36v.302h-7.96v-.302zm-.195-11.05c.331.456.599.857.812 1.213.069-1.146.267-1.845.464-2.247v3.158c.102.259.175.53.18.817 0 .204-.04.39-.12.558a1.058 1.058 0 01-.06.11v5.902a.87.87 0 001.738 0v-6.347h.326v6.346a.87.87 0 101.739 0v-7.1c-1.983-2.13-3.34-4.48-3.667-5.072a1.555 1.555 0 00-.196.082c-.378.188-.786.598-1.071 1.325-.12.303-.223.663-.304 1.094a.8.8 0 01.159.162zm-.336 2.459l.002.06.032.006a5.215 5.215 0 00-.034-.066z"/><path d="M30.439 12.693a26.528 26.528 0 002.485 3.238v-3.085c.041.085.083.183.125.297.198.55.365 1.451.364 2.857 0 .388-.012.814-.04 1.282a.563.563 0 101.123.066c.027-.449.041-.898.042-1.348-.003-2.121-.342-3.296-.804-4.002a1.99 1.99 0 00-.75-.7 1.335 1.335 0 00-.594-.15h-.002l-.008-.001h-2.716l-.01.001c-.051 0-.102.004-.152.011.156.278.476.832.937 1.534zm.583-1.947a1.582 1.582 0 100-3.164 1.582 1.582 0 000 3.164zM4.765 18.877v14.145a1.495 1.495 0 102.992 0v-10.92h.56v10.92a1.495 1.495 0 102.992 0v-18.14c.08.167.152.338.215.513.34.945.628 2.495.627 4.916 0 .667-.022 1.4-.069 2.204a.968.968 0 001.933.113c.048-.839.071-1.609.071-2.317-.005-3.651-.588-5.672-1.383-6.887-.397-.603-.862-.99-1.292-1.204a2.305 2.305 0 00-1-.259l-.037-.001h-.568l-.297 2.324-1.18-1.42.816-.904H6.929l.816.903-1.18 1.421-.297-2.324H5.7a.92.92 0 00-.107.006c-.428.006-.868.03-1.295.042-.12.004-.24.007-.358.006-.691.008-1.29-.09-1.568-.263a.718.718 0 01-.296-.298c-.072-.135-.14-.355-.14-.728-.001-.404.085-.976.313-1.723a.968.968 0 00-.644-1.208l-.02-.004V5.268c.265-.424.94-1.182 2.117-.48 3.192 1.903 3.387-2.54 3.387-2.54s-1.673.928-2.883-.16c-1.024-.922-2.264-.4-2.62-.217v-.389h-.444V7.77a.967.967 0 00-.745.668c-.265.875-.396 1.62-.397 2.286 0 .61.116 1.164.366 1.637.376.718 1.042 1.149 1.676 1.346.642.205 1.288.24 1.898.243l.1-.001c.25-.003.494-.01.725-.02v4.947z"/><path d="M8.48 11.234a2.722 2.722 0 10-.887-5.371 2.722 2.722 0 00.888 5.37zm13.743 5.883c-.122-1.217-.395-1.992-.735-2.512-.23-.35-.5-.575-.75-.7a1.332 1.332 0 00-.594-.15h-.494a10.662 10.662 0 01.24 3.327v1.291h-2.227v-1.29a10.658 10.658 0 01.24-3.33h-.485l-.01.002c-.124 0-.344.024-.593.15-.378.188-.786.598-1.07 1.325-.29.73-.483 1.785-.484 3.378 0 .412.013.86.042 1.347a.563.563 0 00.56.53l.034-.002a.562.562 0 00.529-.594c-.026-.427-.04-.854-.04-1.281-.003-1.703.245-2.658.49-3.157v10.545a.87.87 0 101.738 0v-6.347h.326v6.347a.87.87 0 001.738 0V15.453c.042.086.084.183.125.298.199.55.365 1.45.365 2.857 0 .387-.013.814-.04 1.281a.56.56 0 00.247.497c.056-1.048.213-1.89.476-2.556.112-.286.24-.52.372-.713z"/><path d="M17.834 16.188c0 .322.015.588.031.78h1.823a10.449 10.449 0 00-.255-3.213H18.12c-.225.93-.286 1.792-.286 2.433zm.942-2.834a1.582 1.582 0 100-3.164 1.582 1.582 0 000 3.164zm-.001 4.75a.395.395 0 100-.791.395.395 0 000 .79zm5.513-4.479h2.162a1.58 1.58 0 00-2.924.835 1.582 1.582 0 002.956.782h-2.194v-1.617z"/><path d="M25.636 14.867a.434.434 0 100-.867.434.434 0 000 .867z"/><path d="M29.058 16.823c-.005-.361-.13-.706-.353-1.15-.226-.442-.566-.978-1.056-1.652a.563.563 0 00-.91.661c.469.644.78 1.14.965 1.503.119.227.18.403.21.514a3.841 3.841 0 01-.665-.113c-.134-.03-.268-.063-.397-.09a2.326 2.326 0 00-.33-.048c-.018-.002-.037-.005-.055-.005H23.74c-.125 0-.343.025-.593.15-.378.188-.786.599-1.071 1.325-.289.73-.483 1.785-.483 3.378 0 .412.013.86.041 1.347a.562.562 0 101.123-.065 22.835 22.835 0 01-.04-1.282c-.002-1.703.246-2.657.49-3.157v10.545a.87.87 0 101.739 0v-6.346h.325v6.346a.87.87 0 001.74 0V17.686l.204.045c.229.048.473.092.73.093.216-.003.461-.025.713-.193a.904.904 0 00.305-.357 1.05 1.05 0 00.095-.451z"/></g><defs><clipPath id="clip0_1_37"><path fill="#fff" d="M0 0h36v36H0z"/></clipPath></defs></svg>