<svg width="36" height="36" fill="none" xmlns="http://www.w3.org/2000/svg"><path d="M32.404 7.061a3.058 3.058 0 00-.35-.889S28.15 0 17.999 0C7.851 0 3.945 6.172 3.945 6.172a3.039 3.039 0 00-.35.89s-.756 4.002.494 9.74c1.15 5.274 4.33 12.835 12.965 18.898a1.642 1.642 0 001.892 0c8.632-6.064 11.813-13.624 12.963-18.899 1.253-5.737.495-9.74.495-9.74zm-3.822 9.015c-.032.151-.072.309-.11.464H18v15.634C11.263 27.061 8.58 20.98 7.525 16.54H18V3.405c7.228 0 10.447 3.64 11.085 4.469.105.764.434 3.916-.502 8.202z" fill="#6276AA"/></svg>