<?xml version="1.0" encoding="utf-8"?><svg viewBox="0 0 137 72" xmlns="http://www.w3.org/2000/svg" xmlns:xlink="http://www.w3.org/1999/xlink"><style>:root>svg{display:none}:root>svg:target{display:block}</style><svg fill="none" viewBox="0 0 20 20" id="arrow-down" xmlns="http://www.w3.org/2000/svg"><path d="M16.247 6.657 10 12.747l-6.248-6.09a.597.597 0 0 0-.96.186.569.569 0 0 0 .126.627l6.646 6.48a.625.625 0 0 0 .872 0l6.646-6.479a.568.568 0 0 0 0-.815.598.598 0 0 0-.835 0v.001z" fill="#FDFDFD"/></svg><svg fill="none" viewBox="0 0 6 10" id="footer-arrow" xmlns="http://www.w3.org/2000/svg"><path d="M5.715 4.61 1.265.16A.543.543 0 0 0 .878 0a.543.543 0 0 0-.386.16L.164.487a.548.548 0 0 0 0 .774L3.9 4.998.16 8.739a.543.543 0 0 0-.16.387c0 .146.057.284.16.387l.327.327c.103.103.24.16.387.16a.543.543 0 0 0 .387-.16l4.454-4.454a.544.544 0 0 0 .16-.388.544.544 0 0 0-.16-.388z" fill="#FDFDFD"/></svg><svg fill="none" viewBox="0 0 6 10" id="footer-arrow-yellow" xmlns="http://www.w3.org/2000/svg"><path d="M5.715 4.61 1.265.16A.543.543 0 0 0 .878 0a.543.543 0 0 0-.386.16L.164.487a.548.548 0 0 0 0 .774L3.9 4.998.16 8.739a.543.543 0 0 0-.16.387c0 .146.057.284.16.387l.327.327c.103.103.24.16.387.16a.543.543 0 0 0 .387-.16l4.454-4.454a.544.544 0 0 0 .16-.388.544.544 0 0 0-.16-.388z" fill="#F2BE22"/></svg><svg fill="none" viewBox="0 0 20 20" id="gallery-look" xmlns="http://www.w3.org/2000/svg"><path d="m19 19-4.343-4.343m0 0A8 8 0 1 0 3.344 3.344a8 8 0 0 0 11.313 11.313zM9 6v6M6 9h6" stroke="#fff" stroke-width="1.5" stroke-linecap="round" stroke-linejoin="round"/></svg><svg fill="none" viewBox="0 0 137 72" id="logo" xmlns="http://www.w3.org/2000/svg"><path d="M4.96 61.508h3.142c.492 0 .742-.04.968-.133.532-.219.938-.688.938-1.344 0-.648-.39-1.125-.938-1.351-.226-.094-.468-.14-.976-.14H4.96v2.968zm0 6.492H3.095V56.797h5.234c.867 0 1.438.148 1.922.43.969.523 1.602 1.53 1.602 2.796 0 1.235-.633 2.258-1.61 2.79-.484.273-1.047.43-1.914.43H4.961V68zm13.91-11.203h2.086l3.047 5.742 2.953-5.742h2.086l-4.305 8.101c-.531 1-.875 1.594-1.375 2.118-.578.593-1.281 1.007-2.219 1.007a3.28 3.28 0 0 1-1.875-.601l.953-1.586c.282.203.61.312.946.312.656 0 1.054-.39 1.562-1.304.008-.031.258-.477.258-.477l-4.117-7.57zm17.76 0h1.007l4.851 5.836 4.844-5.836h1.016V68h-1.875v-7.648l-3.985 4.867-3.992-4.867V68h-1.867V56.797zm19.696-.008h9.469v1.75H61.99V68h-1.875v-9.46h-3.789v-1.75zM81.561 68v-7.82L74.78 68h-1.016V56.797h1.875v7.812c2.258-2.601 4.516-5.21 6.781-7.812h1.016V68H81.56zm19.212-3.328c0 1.312-.656 2.351-1.656 2.898-.492.274-1.078.43-1.953.43h-5.133V56.797h7.727v1.742h-5.86v2.813h3.266c.875 0 1.461.156 1.945.437 1.008.54 1.664 1.61 1.664 2.883zm-1.851 0c0-.703-.422-1.211-.984-1.453-.235-.094-.493-.14-.993-.14h-3.047v3.187h3.04c.515 0 .773-.047 1-.149.57-.234.984-.75.984-1.445zm9.931-7.875h7.649v1.734h-5.774v2.461h4.477v1.719h-4.477v3.555h5.774V68h-7.649V56.797zm15.244-.008h9.469v1.75h-3.805V68h-1.875v-9.46h-3.789v-1.75z" fill="#fff"/><mask id="ea" style="mask-type:luminance" maskUnits="userSpaceOnUse" x="0" y="0" width="137" height="48"><path d="M137 0H0v48h137V0z" fill="#fff"/></mask><g mask="url(#ea)"><path d="M.153 27.914c.245-.058 24.662-5.88 43.047-14.033 2.045-.907 3.7-1.445 5.096-1.698-1.563 1.574-10.756 5.5-3.414 6.195 6.737.64-4.36 8.633-9.448 11.539-13.38 4.243-22.065 5.909-22.221 5.938l.184.982c.045-.009.823-.158 2.23-.47 7.377-1.632 32.138-7.745 60.545-21.715 3.984-1.96 7.235-3.046 9.972-3.45-.803 4.117-10.09 13.218 4.743 15.516 13.529 2.096-13.602 7.418-23.714 10.128-1.459.39-2.563.727-3.14.992-4.465 2.047 47.434.206 70.643.112.757.027 1.53.042 2.324.042v-.999c-20.73 0-28.072-9.48-33.972-17.096-6.13-7.916-10.973-14.17-27.296-6.142a282.248 282.248 0 0 1-11.5 5.335c-3.423-1.218-5.496-2.97-7.312-4.507-3.382-2.864-5.825-4.933-13.99-1.31C24.603 21.4.244 27.209 0 27.266l.153.648z" fill="#FDFDFD"/></g></svg><svg fill="none" viewBox="0 0 36 36" id="offer-1" xmlns="http://www.w3.org/2000/svg"><g clip-path="url(#fa)" fill="#45766A"><path d="M12.034 24.928h3.644v.302h-3.644v-.302zm16.006 0H36v.302h-7.96v-.302zm-.195-11.05c.331.456.599.857.812 1.213.069-1.146.267-1.845.464-2.247v3.158c.102.259.175.53.18.817 0 .204-.04.39-.12.558a1.058 1.058 0 0 1-.06.11v5.902a.87.87 0 0 0 1.738 0v-6.347h.326v6.346a.87.87 0 1 0 1.739 0v-7.1c-1.983-2.13-3.34-4.48-3.667-5.072a1.555 1.555 0 0 0-.196.082c-.378.188-.786.598-1.071 1.325-.12.303-.223.663-.304 1.094a.8.8 0 0 1 .159.162zm-.336 2.459.002.06.032.006a5.215 5.215 0 0 0-.034-.066z"/><path d="M30.439 12.693a26.528 26.528 0 0 0 2.485 3.238v-3.085c.041.085.083.183.125.297.198.55.365 1.451.364 2.857 0 .388-.012.814-.04 1.282a.563.563 0 1 0 1.123.066c.027-.449.041-.898.042-1.348-.003-2.121-.342-3.296-.804-4.002a1.99 1.99 0 0 0-.75-.7 1.335 1.335 0 0 0-.594-.15h-.002l-.008-.001h-2.716l-.01.001c-.051 0-.102.004-.152.011.156.278.476.832.937 1.534zm.583-1.947a1.582 1.582 0 1 0 0-3.164 1.582 1.582 0 0 0 0 3.164zM4.765 18.877v14.145a1.495 1.495 0 1 0 2.992 0v-10.92h.56v10.92a1.495 1.495 0 1 0 2.992 0v-18.14c.08.167.152.338.215.513.34.945.628 2.495.627 4.916 0 .667-.022 1.4-.069 2.204a.968.968 0 0 0 1.933.113c.048-.839.071-1.609.071-2.317-.005-3.651-.588-5.672-1.383-6.887-.397-.603-.862-.99-1.292-1.204a2.305 2.305 0 0 0-1-.259l-.037-.001h-.568l-.297 2.324-1.18-1.42.816-.904H6.929l.816.903-1.18 1.421-.297-2.324H5.7a.92.92 0 0 0-.107.006c-.428.006-.868.03-1.295.042-.12.004-.24.007-.358.006-.691.008-1.29-.09-1.568-.263a.718.718 0 0 1-.296-.298c-.072-.135-.14-.355-.14-.728-.001-.404.085-.976.313-1.723a.968.968 0 0 0-.644-1.208l-.02-.004V5.268c.265-.424.94-1.182 2.117-.48 3.192 1.903 3.387-2.54 3.387-2.54s-1.673.928-2.883-.16c-1.024-.922-2.264-.4-2.62-.217v-.389h-.444V7.77a.967.967 0 0 0-.745.668c-.265.875-.396 1.62-.397 2.286 0 .61.116 1.164.366 1.637.376.718 1.042 1.149 1.676 1.346.642.205 1.288.24 1.898.243l.1-.001c.25-.003.494-.01.725-.02v4.947z"/><path d="M8.48 11.234a2.722 2.722 0 1 0-.887-5.371 2.722 2.722 0 0 0 .888 5.37zm13.743 5.883c-.122-1.217-.395-1.992-.735-2.512-.23-.35-.5-.575-.75-.7a1.332 1.332 0 0 0-.594-.15h-.494a10.662 10.662 0 0 1 .24 3.327v1.291h-2.227v-1.29a10.658 10.658 0 0 1 .24-3.33h-.485l-.01.002c-.124 0-.344.024-.593.15-.378.188-.786.598-1.07 1.325-.29.73-.483 1.785-.484 3.378 0 .412.013.86.042 1.347a.563.563 0 0 0 .56.53l.034-.002a.562.562 0 0 0 .529-.594c-.026-.427-.04-.854-.04-1.281-.003-1.703.245-2.658.49-3.157v10.545a.87.87 0 1 0 1.738 0v-6.347h.326v6.347a.87.87 0 0 0 1.738 0V15.453c.042.086.084.183.125.298.199.55.365 1.45.365 2.857 0 .387-.013.814-.04 1.281a.56.56 0 0 0 .247.497c.056-1.048.213-1.89.476-2.556.112-.286.24-.52.372-.713z"/><path d="M17.834 16.188c0 .322.015.588.031.78h1.823a10.449 10.449 0 0 0-.255-3.213H18.12c-.225.93-.286 1.792-.286 2.433zm.942-2.834a1.582 1.582 0 1 0 0-3.164 1.582 1.582 0 0 0 0 3.164zm-.001 4.75a.395.395 0 1 0 0-.791.395.395 0 0 0 0 .79zm5.513-4.479h2.162a1.58 1.58 0 0 0-2.924.835 1.582 1.582 0 0 0 2.956.782h-2.194v-1.617z"/><path d="M25.636 14.867a.434.434 0 1 0 0-.867.434.434 0 0 0 0 .867z"/><path d="M29.058 16.823c-.005-.361-.13-.706-.353-1.15-.226-.442-.566-.978-1.056-1.652a.563.563 0 0 0-.91.661c.469.644.78 1.14.965 1.503.119.227.18.403.21.514a3.841 3.841 0 0 1-.665-.113c-.134-.03-.268-.063-.397-.09a2.326 2.326 0 0 0-.33-.048c-.018-.002-.037-.005-.055-.005H23.74c-.125 0-.343.025-.593.15-.378.188-.786.599-1.071 1.325-.289.73-.483 1.785-.483 3.378 0 .412.013.86.041 1.347a.562.562 0 1 0 1.123-.065 22.835 22.835 0 0 1-.04-1.282c-.002-1.703.246-2.657.49-3.157v10.545a.87.87 0 1 0 1.739 0v-6.346h.325v6.346a.87.87 0 0 0 1.74 0V17.686l.204.045c.229.048.473.092.73.093.216-.003.461-.025.713-.193a.904.904 0 0 0 .305-.357 1.05 1.05 0 0 0 .095-.451z"/></g><defs><clipPath id="fa"><path fill="#fff" d="M0 0h36v36H0z"/></clipPath></defs></svg><svg fill="none" viewBox="0 0 36 36" id="offer-2" xmlns="http://www.w3.org/2000/svg"><path d="M32.404 7.061a3.058 3.058 0 0 0-.35-.889S28.15 0 17.999 0C7.851 0 3.945 6.172 3.945 6.172a3.039 3.039 0 0 0-.35.89s-.756 4.002.494 9.74c1.15 5.274 4.33 12.835 12.965 18.898a1.642 1.642 0 0 0 1.892 0c8.632-6.064 11.813-13.624 12.963-18.899 1.253-5.737.495-9.74.495-9.74zm-3.822 9.015c-.032.151-.072.309-.11.464H18v15.634C11.263 27.061 8.58 20.98 7.525 16.54H18V3.405c7.228 0 10.447 3.64 11.085 4.469.105.764.434 3.916-.502 8.202z" fill="#6276AA"/></svg><svg fill="none" viewBox="0 0 36 36" id="offer-3" xmlns="http://www.w3.org/2000/svg"><path d="m26.3 9.446-7.245-4.61V1.054a1.055 1.055 0 0 0-2.11 0v3.78L9.7 9.446a1.055 1.055 0 0 0-.488.89v24.61c0 .582.472 1.054 1.055 1.054h15.468c.583 0 1.055-.472 1.055-1.055v-24.61c0-.36-.184-.695-.488-.889zm-8.3 7.85a3.52 3.52 0 0 1-3.516-3.515 3.522 3.522 0 0 1 2.461-3.354v.893a1.055 1.055 0 1 0 2.11 0v-.893a3.522 3.522 0 0 1 2.46 3.354A3.52 3.52 0 0 1 18 17.297z" fill="#F2BE22"/></svg><svg fill="none" viewBox="0 0 32 32" id="pinterest" xmlns="http://www.w3.org/2000/svg"><path d="M12.053 28.72c1.28.387 2.574.613 3.947.613A13.333 13.333 0 1 0 2.667 16c0 5.667 3.56 10.533 8.586 12.453-.12-1.04-.24-2.76 0-3.946l1.534-6.587s-.387-.773-.387-2c0-1.84 1.147-3.213 2.453-3.213 1.147 0 1.68.84 1.68 1.92 0 1.146-.76 2.786-1.146 4.36-.227 1.306.693 2.453 2.026 2.453 2.374 0 4.214-2.533 4.214-6.107 0-3.2-2.294-5.386-5.587-5.386-3.76 0-5.973 2.8-5.973 5.746 0 1.147.373 2.307.986 3.067.12.08.12.187.08.387l-.386 1.453c0 .227-.147.307-.374.147C8.667 20 7.68 17.573 7.68 15.613c0-4.213 2.987-8.04 8.747-8.04 4.586 0 8.16 3.294 8.16 7.667 0 4.587-2.84 8.267-6.907 8.267-1.293 0-2.56-.694-3.013-1.507l-.894 3.16c-.306 1.147-1.146 2.68-1.72 3.6v-.04z" fill="#fff"/></svg><svg fill="none" viewBox="0 0 22 22" id="play" xmlns="http://www.w3.org/2000/svg"><path d="M8.243 3.656A1.833 1.833 0 0 0 5.5 5.247v11.508a1.833 1.833 0 0 0 2.743 1.591l10.068-5.755a1.834 1.834 0 0 0 0-3.182L8.243 3.656z" fill="#1A3E3E"/></svg><svg fill="none" viewBox="0 0 32 32" id="skype" xmlns="http://www.w3.org/2000/svg"><path d="M24 8c2.76 2.72 3.8 6.52 3.147 10.067.546.96.853 2.08.853 3.266A6.667 6.667 0 0 1 21.333 28a6.59 6.59 0 0 1-3.266-.853C14.52 27.8 10.72 26.76 8 24c-2.76-2.72-3.8-6.52-3.147-10.067A6.59 6.59 0 0 1 4 10.667 6.667 6.667 0 0 1 10.667 4a6.59 6.59 0 0 1 3.266.853C17.48 4.2 21.28 5.24 24 8zm-7.947 14.88c3.827 0 5.734-1.84 5.734-4.32 0-1.587-.747-3.28-3.64-3.933l-2.654-.587c-1.013-.227-2.16-.533-2.16-1.48 0-.96.8-1.627 2.267-1.627 2.973 0 2.693 2.04 4.173 2.04.774 0 1.44-.453 1.44-1.24 0-1.826-2.92-3.2-5.4-3.2-2.68 0-5.546 1.147-5.546 4.187 0 1.467.52 3.027 3.4 3.747l3.586.906c1.08.267 1.347.867 1.347 1.427 0 .907-.907 1.8-2.547 1.8-3.213 0-2.773-2.467-4.493-2.467-.773 0-1.333.534-1.333 1.294 0 1.48 1.773 3.453 5.826 3.453z" fill="#fff"/></svg><svg fill="none" viewBox="0 0 24 24" id="star" xmlns="http://www.w3.org/2000/svg"><path d="m12 17.27 4.15 2.51c.76.46 1.69-.22 1.49-1.08l-1.1-4.72 3.67-3.18c.67-.58.31-1.68-.57-1.75l-4.83-.41-1.89-4.46c-.34-.81-1.5-.81-1.84 0L9.19 8.63l-4.83.41c-.88.07-1.24 1.17-.57 1.75l3.67 3.18-1.1 4.72c-.2.86.73 1.54 1.49 1.08l4.15-2.5z" fill="#F2BE22"/></svg><svg fill="none" viewBox="0 0 32 32" id="telegram" xmlns="http://www.w3.org/2000/svg"><path d="M16 2.667C8.64 2.667 2.667 8.64 2.667 16S8.64 29.333 16 29.333 29.333 23.36 29.333 16 23.36 2.667 16 2.667zm6.187 9.066c-.2 2.107-1.067 7.227-1.507 9.587-.187 1-.56 1.333-.907 1.373-.773.067-1.36-.506-2.106-1-1.174-.773-1.84-1.253-2.974-2-1.32-.866-.466-1.346.294-2.12.2-.2 3.613-3.306 3.68-3.586a.267.267 0 0 0-.067-.24c-.08-.067-.187-.04-.28-.027-.12.027-1.987 1.267-5.627 3.72-.533.36-1.013.547-1.44.533-.48-.013-1.386-.266-2.066-.493-.84-.267-1.494-.413-1.44-.88.026-.24.36-.48.986-.733 3.894-1.694 6.48-2.814 7.774-3.347 3.706-1.547 4.466-1.813 4.973-1.813.107 0 .36.026.52.16a.53.53 0 0 1 .187.36c-.014.08.013.32 0 .506z" fill="#fff"/></svg><svg fill="none" viewBox="0 0 32 32" id="vk" xmlns="http://www.w3.org/2000/svg"><path d="M16.36 3C8.981 3 3 8.98 3 16.36c0 7.378 5.981 13.36 13.36 13.36s13.36-5.982 13.36-13.36C29.72 8.98 23.739 3 16.36 3zm5.138 15.073s1.182 1.166 1.472 1.707c.009.012.013.023.016.028.118.2.146.354.087.47-.097.191-.431.286-.545.294H20.44c-.144 0-.448-.037-.815-.29-.283-.198-.561-.522-.832-.838-.405-.47-.756-.877-1.11-.877a.427.427 0 0 0-.132.02c-.267.087-.61.468-.61 1.484 0 .318-.25.5-.426.5h-.957c-.325 0-2.022-.114-3.525-1.7-1.84-1.94-3.496-5.834-3.51-5.87-.104-.253.112-.388.347-.388h2.108c.281 0 .373.172.437.323.076.177.351.88.803 1.67.734 1.289 1.183 1.812 1.544 1.812a.418.418 0 0 0 .193-.05c.47-.261.383-1.938.362-2.286 0-.066-.001-.75-.242-1.079-.173-.238-.466-.328-.644-.362.072-.1.167-.18.277-.235.322-.161.904-.185 1.482-.185h.321c.626.008.788.049 1.015.106.459.11.469.406.428 1.42-.012.289-.025.614-.025.998 0 .084-.004.173-.004.268-.014.516-.03 1.102.334 1.343a.3.3 0 0 0 .159.045c.126 0 .508 0 1.54-1.771.319-.57.595-1.163.828-1.773.021-.036.082-.148.155-.19a.37.37 0 0 1 .172-.041h2.479c.27 0 .455.04.49.145.061.165-.011.67-1.143 2.203l-.505.666c-1.026 1.345-1.026 1.413.064 2.433z" fill="#fff"/></svg></svg>